<svg width="32" height="32" viewBox="0 0 32 32" fill="none" xmlns="http://www.w3.org/2000/svg">
<path fill-rule="evenodd" clip-rule="evenodd" d="M21.9146 1.33333C26.7506 1.33333 29.9999 4.72799 29.9999 9.77999V21.5533C29.9999 26.6053 26.7506 30 21.9146 30H9.41858C4.58259 30 1.33325 26.6053 1.33325 21.5533V9.77999C1.33325 4.72799 4.58259 1.33333 9.41858 1.33333H21.9146ZM21.9146 3.33333H9.41858C5.72259 3.33333 3.33325 5.86266 3.33325 9.77999V21.5533C3.33325 25.4707 5.72259 28 9.41858 28H21.9146C25.6119 28 27.9999 25.4707 27.9999 21.5533V9.77999C27.9999 5.86266 25.6119 3.33333 21.9146 3.33333ZM15.6666 9.76973C16.2186 9.76973 16.6666 10.2177 16.6666 10.7697V14.6533L20.5553 14.6536C21.1073 14.6536 21.5553 15.1016 21.5553 15.6536C21.5553 16.2056 21.1073 16.6536 20.5553 16.6536L16.6666 16.6533V20.5391C16.6666 21.0911 16.2186 21.5391 15.6666 21.5391C15.1146 21.5391 14.6666 21.0911 14.6666 20.5391V16.6533L10.7779 16.6536C10.2246 16.6536 9.77792 16.2056 9.77792 15.6536C9.77792 15.1016 10.2246 14.6536 10.7779 14.6536L14.6666 14.6533V10.7697C14.6666 10.2177 15.1146 9.76973 15.6666 9.76973Z" fill="#B2F1FF"/>
</svg>
